<svg xmlns="http://www.w3.org/2000/svg" viewBox="0 0 32 32">
  <defs>
    <linearGradient id="neon" x1="0%" y1="0%" x2="100%" y2="100%">
      <stop offset="0%" style="stop-color:#ff00ff"/>
      <stop offset="50%" style="stop-color:#00ffff"/>
      <stop offset="100%" style="stop-color:#ff00ff"/>
    </linearGradient>
  </defs>
  <!-- Arcade cabinet body -->
  <rect x="4" y="2" width="24" height="28" rx="2" fill="#1a1a2e"/>
  <rect x="5" y="3" width="22" height="26" rx="1" fill="#16213e" stroke="url(#neon)" stroke-width="1"/>
  <!-- Screen -->
  <rect x="7" y="5" width="18" height="12" rx="1" fill="#0f0f23"/>
  <rect x="8" y="6" width="16" height="10" fill="#000" stroke="#00ffff" stroke-width="0.5"/>
  <!-- Pixel "A" on screen -->
  <rect x="13" y="8" width="2" height="1" fill="#ff00ff"/>
  <rect x="12" y="9" width="1" height="1" fill="#ff00ff"/>
  <rect x="17" y="9" width="1" height="1" fill="#ff00ff"/>
  <rect x="11" y="10" width="1" height="3" fill="#ff00ff"/>
  <rect x="18" y="10" width="1" height="3" fill="#ff00ff"/>
  <rect x="12" y="11" width="6" height="1" fill="#ff00ff"/>
  <!-- Joystick -->
  <circle cx="11" cy="22" r="3" fill="#2d2d44"/>
  <circle cx="11" cy="21" r="1.5" fill="#ff00ff"/>
  <rect x="10" y="21" width="2" height="4" fill="#333"/>
  <!-- Buttons -->
  <circle cx="20" cy="21" r="2" fill="#00ffff"/>
  <circle cx="24" cy="23" r="2" fill="#ff00ff"/>
</svg>

